<svg fill="none" height="108" viewBox="0 0 152 108" width="152" xmlns="http://www.w3.org/2000/svg">
    <path
        d="M117.601 89.7119C117.744 89.7119 117.816 89.6281 117.84 89.4963C118.246 87.5804 118.222 87.5085 120.217 87.1014C120.36 87.0775 120.444 86.9936 120.444 86.8619C120.444 86.7182 120.36 86.6344 120.217 86.6105C118.222 86.2033 118.246 86.1315 117.84 84.2275C117.816 84.0958 117.744 84 117.601 84C117.458 84 117.386 84.0958 117.35 84.2275C116.956 86.1315 116.98 86.2033 114.973 86.6105C114.841 86.6344 114.746 86.7182 114.746 86.8619C114.746 86.9936 114.841 87.0775 114.973 87.1014C116.98 87.5085 116.956 87.5804 117.35 89.4963C117.386 89.6281 117.458 89.7119 117.601 89.7119ZM127.468 93.9389C127.635 93.9389 127.731 93.8311 127.755 93.6754C128.173 91.4003 128.185 91.2566 130.586 90.8375C130.741 90.8135 130.861 90.7057 130.861 90.5381C130.861 90.3705 130.741 90.2747 130.586 90.2387C128.185 89.8316 128.173 89.6879 127.755 87.4128C127.731 87.2571 127.635 87.1373 127.468 87.1373C127.301 87.1373 127.193 87.2571 127.17 87.4128C126.763 89.6879 126.751 89.8316 124.35 90.2387C124.183 90.2747 124.076 90.3705 124.076 90.5381C124.076 90.7057 124.183 90.8135 124.35 90.8375C126.751 91.2566 126.763 91.4003 127.17 93.6754C127.193 93.8311 127.301 93.9389 127.468 93.9389ZM111.055 97.3756C111.222 97.3756 111.317 97.2558 111.341 97.1001C111.759 94.825 111.771 94.6813 114.172 94.2742C114.328 94.2383 114.447 94.1425 114.447 93.9748C114.447 93.8071 114.328 93.6994 114.172 93.6754C111.771 93.2563 111.759 93.1127 111.341 90.8375C111.317 90.6818 111.222 90.574 111.055 90.574C110.887 90.574 110.78 90.6818 110.756 90.8375C110.338 93.1127 110.338 93.2563 107.937 93.6754C107.77 93.6994 107.662 93.8071 107.662 93.9748C107.662 94.1425 107.77 94.2383 107.937 94.2742C110.338 94.6813 110.338 94.825 110.756 97.1001C110.78 97.2558 110.887 97.3756 111.055 97.3756ZM131.446 107.614C131.96 108.129 132.82 108.129 133.286 107.614C133.787 107.087 133.787 106.273 133.286 105.77L121.937 94.346C121.436 93.8431 120.575 93.8431 120.098 94.346C119.596 94.8729 119.608 95.6991 120.098 96.2021L131.446 107.614ZM124.506 99.3873L121.005 95.8668C120.79 95.6512 120.731 95.4237 120.934 95.2082C121.137 95.0166 121.364 95.0645 121.591 95.292L125.103 98.8125L124.506 99.3873ZM116.729 107.805C116.944 107.805 117.099 107.65 117.123 107.422C117.517 104.225 117.673 104.141 120.91 103.614C121.173 103.566 121.328 103.447 121.328 103.207C121.328 102.98 121.173 102.836 120.958 102.8C117.697 102.177 117.517 102.189 117.123 98.9922C117.099 98.7646 116.944 98.609 116.729 98.609C116.502 98.609 116.347 98.7646 116.323 98.9801C115.905 102.225 115.785 102.333 112.488 102.8C112.273 102.824 112.118 102.98 112.118 103.207C112.118 103.435 112.273 103.566 112.488 103.614C115.785 104.249 115.893 104.249 116.323 107.446C116.347 107.65 116.502 107.805 116.729 107.805Z"
        fill="#FFFCF5" fill-opacity="0.3" />
    <path
        d="M33.7231 51.7119C33.5798 51.7119 33.5081 51.6281 33.4842 51.4963C33.0781 49.5804 33.102 49.5085 31.107 49.1014C30.9637 49.0775 30.88 48.9936 30.88 48.8619C30.88 48.7182 30.9637 48.6344 31.107 48.6105C33.102 48.2033 33.0781 48.1315 33.4842 46.2275C33.5081 46.0958 33.5798 46 33.7231 46C33.8665 46 33.9382 46.0958 33.974 46.2275C34.3682 48.1315 34.3443 48.2033 36.3512 48.6105C36.4826 48.6344 36.5782 48.7182 36.5782 48.8619C36.5782 48.9936 36.4826 49.0775 36.3512 49.1014C34.3443 49.5085 34.3682 49.5804 33.974 51.4963C33.9382 51.6281 33.8665 51.7119 33.7231 51.7119ZM23.8559 55.9389C23.6887 55.9389 23.5931 55.8311 23.5692 55.6754C23.1511 53.4003 23.1392 53.2566 20.7382 52.8375C20.5828 52.8135 20.4634 52.7057 20.4634 52.5381C20.4634 52.3705 20.5828 52.2747 20.7382 52.2387C23.1392 51.8316 23.1511 51.6879 23.5692 49.4128C23.5931 49.2571 23.6887 49.1373 23.8559 49.1373C24.0232 49.1373 24.1307 49.2571 24.1546 49.4128C24.5607 51.6879 24.5727 51.8316 26.9737 52.2387C27.141 52.2747 27.2485 52.3705 27.2485 52.5381C27.2485 52.7057 27.141 52.8135 26.9737 52.8375C24.5727 53.2566 24.5607 53.4003 24.1546 55.6754C24.1307 55.8311 24.0232 55.9389 23.8559 55.9389ZM40.2695 59.3756C40.1022 59.3756 40.0067 59.2558 39.9828 59.1001C39.5647 56.825 39.5527 56.6813 37.1516 56.2742C36.9963 56.2383 36.8768 56.1425 36.8768 55.9748C36.8768 55.8071 36.9963 55.6994 37.1516 55.6754C39.5527 55.2563 39.5647 55.1127 39.9828 52.8375C40.0067 52.6818 40.1022 52.574 40.2695 52.574C40.4367 52.574 40.5442 52.6818 40.5681 52.8375C40.9862 55.1127 40.9862 55.2563 43.3873 55.6754C43.5546 55.6994 43.662 55.8071 43.662 55.9748C43.662 56.1425 43.5546 56.2383 43.3873 56.2742C40.9862 56.6813 40.9862 56.825 40.5681 59.1001C40.5442 59.2558 40.4367 59.3756 40.2695 59.3756ZM19.878 69.6138C19.3642 70.1287 18.5043 70.1287 18.0382 69.6138C17.5367 69.0869 17.5367 68.2727 18.0382 67.7697L29.3868 56.346C29.8885 55.8431 30.7486 55.8431 31.2265 56.346C31.7282 56.8729 31.7162 57.6991 31.2265 58.2021L19.878 69.6138ZM26.8184 61.3873L30.3186 57.8668C30.5336 57.6512 30.5933 57.4237 30.3903 57.2082C30.1872 57.0166 29.9602 57.0645 29.7332 57.292L26.2212 60.8125L26.8184 61.3873ZM34.5952 69.8054C34.3802 69.8054 34.2249 69.6497 34.201 69.4222C33.8068 66.225 33.6515 66.1412 30.4141 65.6143C30.1513 65.5664 29.996 65.4467 29.996 65.2072C29.996 64.9797 30.1513 64.836 30.3664 64.8C33.6276 64.1774 33.8068 64.1894 34.201 60.9922C34.2249 60.7646 34.3802 60.609 34.5952 60.609C34.8222 60.609 34.9775 60.7646 35.0013 60.9801C35.4195 64.2253 35.5389 64.333 38.836 64.8C39.051 64.824 39.2063 64.9797 39.2063 65.2072C39.2063 65.4347 39.051 65.5664 38.836 65.6143C35.5389 66.2489 35.4314 66.2489 35.0013 69.4461C34.9775 69.6497 34.8222 69.8054 34.5952 69.8054Z"
        fill="#FFFCF5" fill-opacity="0.3" />
    <path
        d="M135.088 33.4815C136.831 33.4815 141.82 33.2416 142.548 30.5327C142.779 29.6697 142.659 28.987 142.19 28.5037C141.101 27.3813 138.57 27.8714 138.285 27.9309C137.166 28.1647 135 28.4398 134.181 28.5401C133.894 28.1822 133.374 27.4569 133.316 27.0005C133.302 26.8843 133.291 26.7558 133.28 26.6174C133.221 25.8831 133.139 24.8773 132.349 23.9218C131.494 22.8887 131.115 21.3634 130.888 20.4519C130.838 20.252 130.76 19.8769 130.663 19.402C130.133 16.8381 129.512 14.0318 128.843 13.1844C128.154 12.3112 127.637 12.051 127.386 11.9736C127.14 11.6205 126.227 10.308 125.804 9.6293C125.729 9.50769 125.664 9.39088 125.602 9.27788C125.212 8.5677 124.898 8.12838 123.424 8.0491C121.521 7.94653 120.798 7.99859 120.448 8.26283C120.287 8.38458 120.187 8.55246 120.091 8.7147C119.97 8.91997 119.865 9.09702 119.654 9.18181C119.515 9.23767 119.214 9.31639 118.865 9.40753C118.029 9.62592 116.884 9.925 116.151 10.3575C115.321 10.8465 114.952 11.285 115.053 11.6608C115.13 11.9445 115.433 12.0939 115.953 12.1048C116.585 12.118 117.283 12.0412 117.899 11.9732C118.322 11.9265 118.722 11.8823 118.993 11.8823H119.061C119.753 11.8831 119.826 11.9125 119.888 12.2502C120.013 12.9384 120.449 13.5117 120.999 13.7109C121.182 13.777 121.363 13.8386 121.512 13.8881C121.396 14.0847 121.238 14.3823 121.04 14.8222C120.666 15.6524 120.569 17.1544 120.546 17.6803C120.267 17.8122 119.792 18.1238 119.792 18.7172C119.792 19.1323 119.947 19.2721 120.105 19.3794C120.138 19.402 120.165 19.4205 120.186 19.4694C120.188 19.477 120.191 19.4845 120.194 19.4919C120.208 19.5346 120.217 19.5963 120.223 19.6905C120.25 20.1226 120.125 20.5078 120.005 20.8801C119.939 21.0849 119.876 21.2785 119.842 21.471L119.801 21.7048C119.728 22.1263 119.665 22.4904 119.553 22.8908C119.426 23.3492 119.298 23.7142 118.985 24.329C118.709 24.8706 118.364 26.0601 118.253 26.4556C118.069 26.5526 117.773 26.7672 117.653 27.1801C117.516 27.6481 117.727 28.099 117.825 28.2733L117.831 28.4481C117.474 28.4239 117.171 28.4003 116.9 28.3777C115.617 28.2711 114.216 28.2695 113.275 28.2781C111.915 28.2584 111.076 28.5284 110.774 29.0814C110.574 29.4467 110.643 29.899 110.968 30.3552C111.751 31.4529 116.647 31.6734 118.376 31.5723C120.374 31.455 122.543 31.3622 122.564 31.3612C122.615 31.3591 122.662 31.3442 122.702 31.3198C123.03 31.4082 123.352 31.4906 123.666 31.5649C127.162 32.3939 133.107 33.4083 134.498 33.4705C134.544 33.4729 134.758 33.4815 135.088 33.4815ZM139.853 28.3334C140.599 28.3334 141.361 28.4676 141.774 28.8931C142.096 29.225 142.169 29.7281 141.992 30.3888C141.371 32.7006 136.391 32.991 134.524 32.9072C133.186 32.8475 127.201 31.8231 123.8 31.0169C122.456 30.6982 120.945 30.2253 119.483 29.7679C118.526 29.4683 117.59 29.1754 116.718 28.9298C116.762 28.9332 116.807 28.9368 116.851 28.9405C118.154 29.0488 120.183 29.1786 125.347 29.3196C130.199 29.4522 133.88 29.1438 133.917 29.1407C133.933 29.1387 133.993 29.1317 134.088 29.1202C134.092 29.1199 134.096 29.1194 134.1 29.119C134.785 29.0366 137.172 28.7407 138.405 28.4831C138.788 28.4027 139.317 28.3334 139.853 28.3334ZM121.113 30.8632C120.326 30.901 119.314 30.9524 118.342 31.0094C116.097 31.1413 111.942 30.7388 111.439 30.032C111.301 29.8392 111.162 29.5641 111.28 29.3489C111.342 29.2349 111.63 28.8959 112.841 28.8477C112.97 28.8461 113.115 28.8444 113.273 28.843C113.305 28.8434 113.337 28.8441 113.37 28.845C114.755 28.8803 116.967 29.5727 119.309 30.3056C119.907 30.4925 120.513 30.6822 121.113 30.8632ZM133.511 28.605C132.49 28.6763 129.32 28.863 125.363 28.7551C121.829 28.6586 119.77 28.5676 118.407 28.4852L118.397 28.1823C118.395 28.1299 118.378 28.0791 118.349 28.0355C118.347 28.0329 118.108 27.6677 118.205 27.3355C118.296 27.023 118.578 26.9272 118.581 26.9265C118.675 26.8974 118.747 26.8235 118.772 26.7304C118.776 26.7149 119.199 25.1718 119.499 24.5818C119.833 23.9249 119.971 23.533 120.108 23.0397C120.226 22.6128 120.295 22.2179 120.368 21.8L120.408 21.5681C120.428 21.4576 120.462 21.3364 120.502 21.2086C120.586 21.3274 120.686 21.4367 120.799 21.5087C121.13 21.7185 121.293 21.7355 121.688 21.7767L121.721 21.7801C121.735 21.8605 121.705 22.0487 121.651 22.1942C121.609 22.3093 121.647 22.4385 121.746 22.5136C121.844 22.5886 121.981 22.5929 122.084 22.5235C122.084 22.5235 122.338 22.3522 122.862 22.0123C122.902 21.9858 123.057 21.8864 123.18 21.8071L123.227 21.777C123.258 21.7571 123.289 21.7409 123.32 21.7282C123.453 21.9219 123.749 21.9704 124.332 22.0501C124.436 22.0644 124.542 22.0789 124.647 22.0949C125.216 22.1819 127.174 22.5635 127.194 22.5673C127.338 22.5953 127.479 22.513 127.524 22.3763C127.568 22.2396 127.501 22.0919 127.367 22.0331C127.363 22.0312 126.933 21.8416 126.623 21.6841C126.46 21.601 126.054 21.4087 125.688 21.2363C126.454 20.9877 127.839 19.6054 128.253 18.6733C128.611 17.8682 128.253 17.1189 128.07 16.8176C128.304 16.8477 128.456 16.8939 128.461 16.8952C128.611 16.9422 128.773 16.8603 128.821 16.7122C128.869 16.5639 128.787 16.4057 128.636 16.3578C128.576 16.3386 127.143 15.8992 126.04 16.7368C125.452 17.1833 125.093 17.8477 124.746 18.4905C124.465 19.0099 124.175 19.547 123.766 19.9679C123.058 20.6964 122.678 20.4218 122.238 20.1038C122.203 20.0786 122.169 20.054 122.136 20.0308C121.727 19.7441 120.951 19.3254 120.685 19.1845C120.616 19.0518 120.524 18.9778 120.432 18.915C120.416 18.9046 120.393 18.8886 120.388 18.8828C120.388 18.8828 120.367 18.8476 120.367 18.7169C120.367 18.3141 120.906 18.143 120.911 18.1413C121.029 18.1051 121.111 17.999 121.114 17.8781C121.114 17.8587 121.163 15.9433 121.565 15.0499C121.959 14.1742 122.172 13.9237 122.175 13.9213C122.237 13.8493 122.26 13.7497 122.234 13.6587C122.207 13.5677 122.137 13.4942 122.045 13.4658C122.041 13.4645 121.616 13.3323 121.198 13.1809C120.901 13.0734 120.555 12.7131 120.453 12.1505C120.301 11.316 119.699 11.3183 119.06 11.3174H118.992C118.689 11.3174 118.293 11.3612 117.834 11.4117C117.237 11.4777 116.559 11.5522 115.964 11.5399C115.781 11.5361 115.681 11.5137 115.63 11.4965C115.691 11.3935 115.903 11.1603 116.446 10.8407C117.11 10.4492 118.21 10.1619 119.012 9.95223C119.395 9.8522 119.698 9.7732 119.871 9.70351C120.263 9.54621 120.443 9.24219 120.587 8.99812C120.659 8.87764 120.726 8.76379 120.798 8.70962C121.091 8.48841 122.703 8.57503 123.392 8.61214C124.62 8.67816 124.779 8.96793 125.097 9.5455C125.159 9.65949 125.23 9.78872 125.314 9.92331C125.81 10.7214 126.928 12.3153 126.975 12.3827C127.024 12.4524 127.102 12.4968 127.188 12.5037C127.184 12.5037 127.648 12.5912 128.389 13.5298C129.031 14.3438 129.752 17.8356 130.099 19.5137C130.198 19.9948 130.277 20.3747 130.329 20.5855C130.568 21.5431 130.967 23.1456 131.903 24.2772C132.222 24.6636 132.407 25.0607 132.518 25.4457C132.457 25.5256 132.332 25.6111 132.096 25.5473C131.819 25.4724 131.594 25.3433 131.376 25.2185C131.152 25.0905 130.941 24.9696 130.707 24.9328C130.411 24.8864 130.125 24.8399 130.015 24.822C129.791 24.7045 128.771 24.1705 128.46 24.0458C128.434 24.0352 128.397 24.0193 128.35 23.999C126.726 23.3001 125.105 22.9636 123.529 23.0017C121.083 23.0593 120.164 24.3397 119.819 24.8216C119.79 24.861 119.767 24.8944 119.746 24.9202C119.457 25.2879 119.338 25.7299 119.333 25.7485C119.302 25.8683 119.353 25.9944 119.461 26.0594C119.568 26.1245 119.706 26.113 119.801 26.0316C119.806 26.0265 120.471 25.4718 121.454 25.4189C121.893 25.3954 122.253 25.3907 122.543 25.3869C122.995 25.381 123.321 25.3769 123.606 25.3071C123.699 25.2841 123.799 25.2556 123.903 25.2255C124.253 25.1246 124.651 25.0104 125.054 25.061C125.313 25.0935 125.515 25.1582 125.712 25.2209C125.935 25.292 126.166 25.3655 126.44 25.3745C126.877 25.3886 129.59 25.376 129.899 25.3748C129.986 25.389 130.295 25.4394 130.616 25.4897C130.745 25.5099 130.903 25.6006 131.086 25.7057C131.312 25.8354 131.594 25.9966 131.944 26.091C132.232 26.1688 132.465 26.1346 132.645 26.0501C132.675 26.2638 132.692 26.469 132.707 26.6614C132.719 26.8088 132.73 26.9458 132.746 27.0698C132.81 27.5732 133.211 28.1976 133.511 28.605ZM124.85 24.4849C124.435 24.4849 124.057 24.5938 123.742 24.6846C123.645 24.7124 123.553 24.7389 123.467 24.7601C123.247 24.814 122.949 24.8178 122.536 24.8232C122.241 24.827 121.874 24.8318 121.422 24.8559C121.001 24.8786 120.63 24.9765 120.326 25.0945C120.654 24.6426 121.471 23.615 123.543 23.5662C125.035 23.5317 126.574 23.8507 128.12 24.516C128.172 24.5387 128.214 24.5565 128.243 24.5682C128.342 24.608 128.539 24.703 128.763 24.8153C127.861 24.8181 126.72 24.8195 126.459 24.8109C126.266 24.8047 126.091 24.749 125.889 24.6845C125.678 24.6172 125.439 24.5409 125.128 24.5016C125.033 24.4901 124.941 24.4849 124.85 24.4849ZM123.457 21.1323C123.427 21.1323 123.395 21.1344 123.362 21.1384C123.206 21.1574 123.054 21.2136 122.912 21.305L122.865 21.335C122.741 21.415 122.585 21.5152 122.544 21.5418C122.451 21.6027 122.366 21.6581 122.289 21.7082C122.276 21.62 122.25 21.5347 122.202 21.4593C122.116 21.3239 121.976 21.2395 121.807 21.2217L121.748 21.2157C121.383 21.1774 121.327 21.1717 121.111 21.0348C120.975 20.9483 120.807 20.6147 120.734 20.4114C120.769 20.247 120.794 20.0742 120.8 19.8915C121.128 20.0725 121.55 20.3135 121.803 20.4907C121.834 20.5123 121.865 20.5351 121.898 20.5587C122.327 20.8686 123.125 21.4456 124.182 20.3578C124.646 19.8807 124.955 19.3085 125.253 18.7553C125.587 18.1382 125.901 17.5556 126.391 17.1836C126.728 16.9279 127.116 16.8276 127.465 16.8005C127.452 16.8745 127.469 16.9533 127.518 17.0181C127.532 17.0373 128.042 17.7373 127.726 18.4477C127.353 19.2874 126.063 20.5271 125.502 20.7022C125.034 20.8485 124.89 20.8765 124.858 20.8816C124.742 20.8843 124.635 20.9564 124.594 21.0685C124.545 21.2051 124.608 21.3566 124.742 21.4187C124.746 21.4209 124.914 21.4991 125.143 21.6062C124.978 21.5768 124.837 21.5529 124.736 21.5375C124.628 21.521 124.518 21.5059 124.411 21.4913C124.232 21.4668 123.98 21.4325 123.84 21.3972C123.83 21.3517 123.81 21.3088 123.78 21.2703C123.709 21.1784 123.6 21.1323 123.457 21.1323Z"
        fill="#FFFCF5" fill-opacity="0.3" />
    <path
        d="M81.0878 96.4815C82.8309 96.4815 87.8201 96.2416 88.5476 93.5327C88.7792 92.6697 88.6589 91.987 88.1901 91.5037C87.1014 90.3813 84.5702 90.8714 84.2851 90.9309C83.1664 91.1647 81.0001 91.4398 80.1814 91.5401C79.8936 91.1822 79.3744 90.4569 79.3163 90.0005C79.3015 89.8843 79.2912 89.7558 79.2801 89.6174C79.2205 88.8831 79.1391 87.8773 78.3487 86.9218C77.4941 85.8887 77.1145 84.3634 76.8877 83.4519C76.8379 83.252 76.7605 82.8769 76.6625 82.402C76.133 79.8381 75.5122 77.0318 74.8432 76.1844C74.1538 75.3112 73.6373 75.051 73.3864 74.9736C73.1396 74.6205 72.2266 73.308 71.8043 72.6293C71.7286 72.5077 71.6644 72.3909 71.6024 72.2779C71.2121 71.5677 70.8982 71.1284 69.4238 71.0491C67.5208 70.9465 66.7976 70.9986 66.4479 71.2628C66.2867 71.3846 66.1873 71.5525 66.0911 71.7147C65.9696 71.92 65.8646 72.097 65.6539 72.1818C65.5146 72.2377 65.2137 72.3164 64.8649 72.4075C64.029 72.6259 62.8843 72.925 62.1505 73.3575C61.3208 73.8465 60.9515 74.285 61.0532 74.6608C61.1299 74.9445 61.4325 75.0939 61.9526 75.1048C62.5853 75.118 63.2835 75.0412 63.8988 74.9732C64.322 74.9265 64.7217 74.8823 64.9929 74.8823H65.0613C65.7527 74.8831 65.8262 74.9125 65.8876 75.2502C66.0127 75.9384 66.449 76.5117 66.9994 76.7109C67.1818 76.777 67.3628 76.8386 67.5124 76.8881C67.3959 77.0847 67.2377 77.3823 67.0396 77.8222C66.6662 78.6524 66.5694 80.1544 66.5462 80.6803C66.267 80.8122 65.7923 81.1238 65.7923 81.7172C65.7923 82.1323 65.9469 82.2721 66.1052 82.3794C66.1383 82.402 66.1655 82.4205 66.1859 82.4694C66.1883 82.477 66.191 82.4845 66.1941 82.4919C66.2076 82.5346 66.2175 82.5963 66.2232 82.6905C66.2499 83.1226 66.1254 83.5078 66.0049 83.8801C65.9387 84.0849 65.8761 84.2785 65.842 84.471L65.8011 84.7048C65.7278 85.1263 65.6647 85.4904 65.5535 85.8908C65.4262 86.3492 65.298 86.7142 64.985 87.329C64.7094 87.8706 64.3641 89.0601 64.2529 89.4556C64.0688 89.5526 63.7726 89.7672 63.6526 90.1801C63.5164 90.6481 63.727 91.099 63.8254 91.2733L63.8314 91.4481C63.4743 91.4239 63.1713 91.4003 62.9 91.3777C61.6172 91.2711 60.2161 91.2695 59.2752 91.2781C57.9148 91.2584 57.0764 91.5284 56.7741 92.0814C56.5743 92.4467 56.6433 92.899 56.9684 93.3552C57.7509 94.4529 62.647 94.6734 64.3762 94.5723C66.3736 94.455 68.5427 94.3622 68.5644 94.3612C68.6151 94.3591 68.6622 94.3442 68.7024 94.3198C69.03 94.4082 69.352 94.4906 69.6657 94.5649C73.1622 95.3939 79.1071 96.4083 80.4982 96.4705C80.5442 96.4729 80.7582 96.4815 81.0878 96.4815ZM85.8528 91.3334C86.5991 91.3334 87.3614 91.4676 87.7741 91.8931C88.0962 92.225 88.1694 92.7281 87.992 93.3888C87.3713 95.7006 82.3905 95.991 80.5238 95.9072C79.1858 95.8475 73.2007 94.8231 69.8 94.0169C68.4558 93.6982 66.9447 93.2253 65.4833 92.7679C64.526 92.4683 63.59 92.1754 62.7177 91.9298C62.7624 91.9332 62.8069 91.9368 62.8513 91.9405C64.1543 92.0488 66.1826 92.1786 71.3473 92.3196C76.1986 92.4522 79.8801 92.1438 79.9167 92.1407C79.9334 92.1387 79.9934 92.1317 80.0883 92.1202C80.0921 92.1199 80.0959 92.1194 80.0997 92.119C80.7846 92.0366 83.1722 91.7407 84.4046 91.4831C84.7884 91.4027 85.3165 91.3334 85.8528 91.3334ZM67.1134 93.8632C66.3265 93.901 65.3136 93.9524 64.3416 94.0094C62.0971 94.1413 57.9424 93.7388 57.4388 93.032C57.3014 92.8392 57.1622 92.5641 57.28 92.3489C57.3423 92.2349 57.6301 91.8959 58.8415 91.8477C58.9703 91.8461 59.1152 91.8444 59.2734 91.843C59.3051 91.8434 59.3371 91.8441 59.3699 91.845C60.7547 91.8803 62.9669 92.5727 65.309 93.3056C65.9067 93.4925 66.5129 93.6822 67.1134 93.8632ZM79.5109 91.605C78.4905 91.6763 75.3199 91.863 71.3634 91.7551C67.8294 91.6586 65.7702 91.5676 64.4072 91.4852L64.3967 91.1823C64.3948 91.1299 64.3782 91.0791 64.3486 91.0355C64.3469 91.0329 64.108 90.6677 64.2047 90.3355C64.2956 90.023 64.5783 89.9272 64.5811 89.9265C64.6746 89.8974 64.7467 89.8235 64.7722 89.7304C64.7763 89.7149 65.1986 88.1718 65.4989 87.5818C65.8333 86.9249 65.9709 86.533 66.1079 86.0397C66.2264 85.6128 66.2949 85.2179 66.3676 84.8L66.4081 84.5681C66.4276 84.4576 66.4622 84.3364 66.5021 84.2086C66.5863 84.3274 66.686 84.4367 66.7995 84.5087C67.1301 84.7185 67.2933 84.7355 67.6878 84.7767L67.7207 84.7801C67.7352 84.8605 67.705 85.0487 67.6515 85.1942C67.6091 85.3093 67.647 85.4385 67.7457 85.5136C67.8442 85.5886 67.9807 85.5929 68.0838 85.5235C68.0838 85.5235 68.3383 85.3522 68.8617 85.0123C68.9025 84.9858 69.057 84.8864 69.1804 84.8071L69.2271 84.777C69.2578 84.7571 69.289 84.7409 69.32 84.7282C69.4525 84.9219 69.7494 84.9704 70.3321 85.0501C70.4358 85.0644 70.5424 85.0789 70.6474 85.0949C71.2163 85.1819 73.1742 85.5635 73.1939 85.5673C73.3375 85.5953 73.479 85.513 73.5235 85.3763C73.5679 85.2396 73.5007 85.0919 73.3674 85.0331C73.3631 85.0312 72.9331 84.8416 72.6233 84.6841C72.4598 84.601 72.0542 84.4087 71.6875 84.2363C72.4535 83.9877 73.8385 82.6054 74.2527 81.6733C74.6105 80.8682 74.2527 80.1189 74.0699 79.8176C74.3036 79.8477 74.4563 79.8939 74.4606 79.8952C74.6112 79.9422 74.773 79.8603 74.8212 79.7122C74.8693 79.5639 74.7867 79.4057 74.6359 79.3578C74.5756 79.3386 73.1434 78.8992 72.04 79.7368C71.4517 80.1833 71.0928 80.8477 70.7458 81.4905C70.4653 82.0099 70.1751 82.547 69.7662 82.9679C69.0583 83.6964 68.6783 83.4218 68.2382 83.1038C68.2033 83.0786 68.1694 83.054 68.1362 83.0308C67.727 82.7441 66.9506 82.3254 66.6853 82.1845C66.6162 82.0518 66.5241 81.9778 66.4316 81.915C66.4163 81.9046 66.3927 81.8886 66.3878 81.8828C66.3878 81.8828 66.3667 81.8476 66.3667 81.7169C66.3667 81.3141 66.9059 81.143 66.9113 81.1413C67.0287 81.1051 67.1111 80.999 67.1139 80.8781C67.1143 80.8587 67.163 78.9433 67.565 78.0499C67.9588 77.1742 68.1724 76.9237 68.1745 76.9213C68.2372 76.8493 68.2602 76.7497 68.2336 76.6587C68.207 76.5677 68.1373 76.4942 68.0454 76.4658C68.0411 76.4645 67.6163 76.3323 67.1977 76.1809C66.9006 76.0734 66.555 75.7131 66.4527 75.1505C66.3011 74.316 65.6988 74.3183 65.0601 74.3174H64.9925C64.6891 74.3174 64.293 74.3612 63.8343 74.4117C63.2368 74.4777 62.5591 74.5522 61.9644 74.5399C61.7805 74.5361 61.6807 74.5137 61.6304 74.4965C61.6913 74.3935 61.9033 74.1603 62.4457 73.8407C63.1099 73.4492 64.2096 73.1619 65.0123 72.9522C65.3952 72.8522 65.6975 72.7732 65.871 72.7035C66.2626 72.5462 66.4425 72.2422 66.5873 71.9981C66.6587 71.8776 66.7262 71.7638 66.7979 71.7096C67.0909 71.4884 68.7034 71.575 69.3921 71.6121C70.62 71.6782 70.7792 71.9679 71.0965 72.5455C71.1591 72.6595 71.2301 72.7887 71.3138 72.9233C71.8103 73.7214 72.9281 75.3153 72.9753 75.3827C73.0241 75.4524 73.1023 75.4968 73.188 75.5037C73.1839 75.5037 73.6478 75.5912 74.3887 76.5298C75.0315 77.3438 75.7525 80.8356 76.0991 82.5137C76.1983 82.9948 76.2769 83.3747 76.3293 83.5855C76.5677 84.5431 76.9666 86.1456 77.9026 87.2772C78.2222 87.6636 78.4067 88.0607 78.5185 88.4457C78.4566 88.5256 78.3325 88.6111 78.0961 88.5473C77.8187 88.4724 77.5935 88.3433 77.3756 88.2185C77.1521 88.0905 76.9412 87.9696 76.7066 87.9328C76.411 87.8864 76.1248 87.8399 76.0153 87.822C75.7914 87.7045 74.7708 87.1705 74.4603 87.0458C74.434 87.0352 74.3971 87.0193 74.35 86.999C72.7264 86.3001 71.1048 85.9636 69.5292 86.0017C67.0831 86.0593 66.1645 87.3397 65.8186 87.8216C65.7903 87.861 65.7666 87.8944 65.7464 87.9202C65.457 88.2879 65.3382 88.7299 65.3333 88.7485C65.3017 88.8683 65.3533 88.9944 65.4606 89.0594C65.568 89.1245 65.7057 89.113 65.8005 89.0316C65.8064 89.0265 66.471 88.4718 67.4537 88.4189C67.8929 88.3954 68.2534 88.3907 68.5432 88.3869C68.9951 88.381 69.3214 88.3769 69.6058 88.3071C69.6993 88.2841 69.7985 88.2556 69.9028 88.2255C70.2534 88.1246 70.6511 88.0104 71.0544 88.061C71.3125 88.0935 71.5155 88.1582 71.7118 88.2209C71.935 88.292 72.1657 88.3655 72.4401 88.3745C72.8768 88.3886 75.5905 88.376 75.8987 88.3748C75.9857 88.389 76.2954 88.4394 76.616 88.4897C76.7445 88.5099 76.903 88.6006 77.0862 88.7057C77.3124 88.8354 77.5941 88.9966 77.9437 89.091C78.2318 89.1688 78.4646 89.1346 78.6449 89.0501C78.675 89.2638 78.6917 89.469 78.7072 89.6614C78.7191 89.8088 78.7305 89.9458 78.7461 90.0698C78.8103 90.5732 79.2109 91.1976 79.5109 91.605ZM70.8498 87.4849C70.4354 87.4849 70.0568 87.5938 69.7415 87.6846C69.6452 87.7124 69.5532 87.7389 69.4666 87.7601C69.2472 87.814 68.9488 87.8178 68.5359 87.8232C68.2408 87.827 67.8735 87.8318 67.4224 87.8559C67.0005 87.8786 66.6301 87.9765 66.3263 88.0945C66.6538 87.6426 67.4715 86.615 69.5432 86.5662C71.0346 86.5317 72.5736 86.8507 74.1196 87.516C74.1723 87.5387 74.2137 87.5565 74.243 87.5682C74.3419 87.608 74.5386 87.703 74.7632 87.8153C73.8612 87.8181 72.7195 87.8195 72.4593 87.8109C72.2659 87.8047 72.0914 87.749 71.8893 87.6845C71.6782 87.6172 71.4389 87.5409 71.1277 87.5016C71.0335 87.4901 70.9407 87.4849 70.8498 87.4849ZM69.457 84.1323C69.427 84.1323 69.3952 84.1344 69.3621 84.1384C69.2058 84.1574 69.0543 84.2136 68.9121 84.305L68.8654 84.335C68.741 84.415 68.5852 84.5152 68.5444 84.5418C68.4507 84.6027 68.3656 84.6581 68.289 84.7082C68.2764 84.62 68.2495 84.5347 68.2018 84.4593C68.1161 84.3239 67.9758 84.2395 67.8066 84.2217L67.7483 84.2157C67.3829 84.1774 67.3266 84.1717 67.111 84.0348C66.9748 83.9483 66.8071 83.6147 66.7341 83.4114C66.7693 83.247 66.7941 83.0742 66.7999 82.8915C67.1282 83.0725 67.5498 83.3135 67.8027 83.4907C67.8336 83.5123 67.8652 83.5351 67.8978 83.5587C68.3267 83.8686 69.1249 84.4456 70.1819 83.3578C70.6457 82.8807 70.9546 82.3085 71.2534 81.7553C71.5866 81.1382 71.9013 80.5556 72.3913 80.1836C72.7281 79.9279 73.1164 79.8276 73.4649 79.8005C73.4519 79.8745 73.4685 79.9533 73.5179 80.0181C73.5322 80.0373 74.0419 80.7373 73.7262 81.4477C73.353 82.2874 72.0626 83.5271 71.5023 83.7022C71.0343 83.8485 70.8904 83.8765 70.8579 83.8816C70.7418 83.8843 70.6353 83.9564 70.5944 84.0685C70.5446 84.2051 70.6083 84.3566 70.7418 84.4187C70.7463 84.4209 70.9144 84.4991 71.1428 84.6062C70.978 84.5768 70.8367 84.5529 70.7357 84.5375C70.6277 84.521 70.518 84.5059 70.4113 84.4913C70.2316 84.4668 69.9801 84.4325 69.8399 84.3972C69.8299 84.3517 69.8099 84.3088 69.78 84.2703C69.7089 84.1784 69.6005 84.1323 69.457 84.1323Z"
        fill="#FFFCF5" fill-opacity="0.3" />
    <path
        d="M79.5205 37.5206C79.8562 37.1849 80.3025 37 80.7772 37C81.2519 37 81.6982 37.1849 82.0339 37.5205L86.1343 41.6209H88.1909C88.6656 41.6209 89.1119 41.8057 89.4476 42.1414L100.67 53.3638L101.48 52.5539C101.612 52.422 101.798 52.3598 101.983 52.3863C102.167 52.4128 102.329 52.5248 102.418 52.6885L104.056 55.6833C104.867 55.3563 105.697 55.212 106.512 55.2638C107.724 55.3405 108.879 55.8333 109.854 56.6891C110.869 57.5799 111.605 58.7947 111.927 60.1097C112.269 61.5093 112.106 62.9237 111.467 64.0926C111.063 64.8324 110.966 65.5277 111.172 66.2183C111.616 67.7072 113.331 68.6381 113.347 68.6468C113.582 68.7712 113.705 69.0366 113.649 69.2963C113.592 69.5559 113.37 69.7463 113.104 69.7618C113.058 69.7646 112.846 69.7759 112.505 69.7759C110.707 69.7759 105.345 69.4634 102.066 65.9423C100.748 64.5261 100.071 62.5347 100.255 60.6154C100.299 60.1543 100.392 59.7119 100.53 59.2922L97.4813 57.6256C97.3175 57.5361 97.2055 57.3747 97.1791 57.19C97.1525 57.0053 97.2146 56.8189 97.3466 56.6869L98.1565 55.877L87.4547 45.1754H85.3982H85.3981C84.9235 45.1754 84.4772 44.9906 84.1415 44.6549L79.5206 40.0339C79.1848 39.6982 79 39.252 79 38.7772C79 38.3026 79.1848 37.8563 79.5205 37.5206ZM102.934 65.135C104.968 67.3199 108.007 68.1302 110.221 68.4248C109.254 67.7694 108.316 66.8605 107.973 65.6807C107.882 65.3665 108.063 65.0378 108.377 64.9465C108.691 64.8554 109.02 65.036 109.111 65.3502C109.281 65.9339 109.678 66.4425 110.143 66.8654C110.104 66.7674 110.069 66.6671 110.039 66.5645C109.739 65.567 109.87 64.5441 110.427 63.5243C111.428 61.6926 110.846 59.1368 109.072 57.5795C108.296 56.8982 107.385 56.5063 106.437 56.4463C106.35 56.4407 106.263 56.4381 106.176 56.4381C105.833 56.4381 105.49 56.4817 105.147 56.5665C105.788 56.8231 106.518 57.2819 107.302 58.0664C107.533 58.2978 107.533 58.673 107.302 58.9042C107.187 59.0198 107.035 59.0777 106.883 59.0777C106.732 59.0777 106.58 59.0199 106.464 58.9042C105.064 57.5036 103.993 57.4024 103.469 57.4709L104.507 58.8998C104.7 59.1645 104.641 59.535 104.376 59.7273C104.271 59.8037 104.149 59.8405 104.029 59.8405C103.845 59.8405 103.665 59.7557 103.549 59.5962L102.616 58.3124C102.589 58.5723 102.368 61.1895 104.064 62.8849C104.295 63.1162 104.295 63.4914 104.064 63.7227C103.948 63.8383 103.796 63.8962 103.645 63.8962C103.493 63.8962 103.342 63.8383 103.226 63.7227C102.143 62.6399 101.691 61.3004 101.512 60.204C101.478 60.3751 101.451 60.5499 101.434 60.7286C101.282 62.3157 101.843 63.963 102.934 65.135ZM101.014 58.2068C101.389 57.5623 101.888 57.0019 102.499 56.5563C102.664 56.436 102.831 56.3242 102.999 56.2201L102.727 55.7227L100.515 57.9341L101.014 58.2068ZM99.4319 57.3418L102.134 54.6393L101.758 53.9509L98.7435 56.9656L99.4319 57.3418ZM80.3583 39.1962L84.9792 43.8172C85.0911 43.9291 85.2399 43.9907 85.3981 43.9907H87.7C87.8571 43.9907 88.0078 44.0531 88.1189 44.1642L98.9941 55.0394L99.8319 54.2015L88.6097 42.9793C88.4978 42.8675 88.3491 42.8059 88.1909 42.8059H85.889C85.7318 42.8059 85.5811 42.7435 85.4701 42.6324L81.1962 38.3585C81.0843 38.2466 80.9355 38.185 80.7773 38.185C80.6191 38.185 80.4703 38.2466 80.3585 38.3585C80.2466 38.4704 80.185 38.6192 80.185 38.7774C80.1847 38.9356 80.2464 39.0843 80.3583 39.1962Z"
        fill="#FFFCF5" fill-opacity="0.3" />
    <path
        d="M34.1416 0.520608C33.8058 0.184887 33.3596 0 32.8849 0C32.4101 0 31.9638 0.184887 31.6282 0.520541L27.5277 4.62089H25.4712C24.9965 4.62089 24.5501 4.80571 24.2145 5.14143L12.9923 16.3638L12.1824 15.5539C12.0504 15.422 11.8641 15.3598 11.6793 15.3863C11.4946 15.4128 11.3332 15.5248 11.2437 15.6885L9.60635 18.6833C8.79538 18.3563 7.96538 18.212 7.14961 18.2638C5.9384 18.3405 4.7829 18.8333 3.80817 19.6891C2.79349 20.5799 2.05739 21.7947 1.73555 23.1097C1.39299 24.5093 1.55614 25.9237 2.19509 27.0926C2.59953 27.8324 2.69607 28.5277 2.49013 29.2183C2.04602 30.7072 0.33153 31.6381 0.31535 31.6468C0.0805007 31.7712 -0.0428476 32.0366 0.013546 32.2963C0.0699396 32.5559 0.2924 32.7463 0.557714 32.7618C0.603817 32.7646 0.816461 32.7759 1.15733 32.7759C2.95515 32.7759 8.31728 32.4634 11.5956 28.9423C12.9141 27.5261 13.5915 25.5347 13.4075 23.6154C13.3634 23.1543 13.2696 22.7119 13.1325 22.2922L16.1808 20.6256C16.3445 20.5361 16.4565 20.3747 16.483 20.19C16.5095 20.0053 16.4474 19.8189 16.3154 19.6869L15.5055 18.877L26.2073 8.17545H28.2638H28.2639C28.7385 8.17545 29.1848 7.99056 29.5205 7.65491L34.1415 3.03395C34.4772 2.69823 34.662 2.25195 34.662 1.77724C34.662 1.3026 34.4772 0.856262 34.1416 0.520608ZM10.7283 28.135C8.6941 30.3199 5.65494 31.1302 3.44151 31.4248C4.40812 30.7694 5.34623 29.8605 5.68879 28.6807C5.78005 28.3665 5.59922 28.0378 5.2851 27.9465C4.9707 27.8554 4.64209 28.036 4.55096 28.3502C4.38151 28.9339 3.98364 29.4425 3.51922 29.8654C3.55768 29.7674 3.59268 29.6671 3.62348 29.5645C3.92319 28.567 3.79253 27.5441 3.23502 26.5243C2.23368 24.6926 2.81623 22.1368 4.59009 20.5795C5.3662 19.8982 6.27716 19.5063 7.22475 19.4463C7.31195 19.4407 7.39915 19.4381 7.48648 19.4381C7.82931 19.4381 8.17234 19.4817 8.5147 19.5665C7.87433 19.8231 7.14446 20.2819 6.35989 21.0664C6.12856 21.2978 6.12856 21.673 6.35989 21.9042C6.47552 22.0198 6.62717 22.0777 6.77875 22.0777C6.93033 22.0777 7.08197 22.0199 7.1976 21.9042C8.59824 20.5036 9.66931 20.4024 10.1927 20.4709L9.15466 21.8998C8.96233 22.1645 9.02109 22.535 9.28579 22.7273C9.39093 22.8037 9.51272 22.8405 9.63343 22.8405C9.81662 22.8405 9.99731 22.7557 10.1132 22.5962L11.0458 21.3124C11.0727 21.5723 11.2938 24.1895 9.59836 25.8849C9.36703 26.1162 9.36703 26.4914 9.59836 26.7227C9.71399 26.8383 9.86564 26.8962 10.0172 26.8962C10.1688 26.8962 10.3204 26.8383 10.4361 26.7227C11.5188 25.6399 11.9712 24.3004 12.1497 23.204C12.1843 23.3751 12.2109 23.5499 12.228 23.7286C12.3802 25.3157 11.8195 26.963 10.7283 28.135ZM12.6481 21.2068C12.2735 20.5623 11.7744 20.0019 11.1634 19.5563C10.9985 19.436 10.8315 19.3242 10.6632 19.2201L10.9352 18.7227L13.1467 20.9341L12.6481 21.2068ZM14.2302 20.3418L11.5276 17.6393L11.9039 16.9509L14.9185 19.9656L14.2302 20.3418ZM33.3038 2.19624L28.6828 6.81719C28.5709 6.9291 28.4222 6.99071 28.264 6.99071H25.9621C25.8049 6.99071 25.6542 7.05313 25.5432 7.16422L14.668 18.0394L13.8301 17.2015L25.0523 5.97935C25.1642 5.86751 25.313 5.8059 25.4712 5.8059H27.7731C27.9302 5.8059 28.0809 5.74348 28.1919 5.63239L32.4659 1.35852C32.5778 1.24662 32.7265 1.18501 32.8847 1.18501C33.0429 1.18501 33.1917 1.24662 33.3036 1.35852C33.4155 1.47043 33.4771 1.61917 33.4771 1.77738C33.4773 1.93559 33.4156 2.08433 33.3038 2.19624Z"
        fill="#FFFCF5" fill-opacity="0.3" />
    <path
        d="M43.6094 25.2376C43.1366 25.0188 42.8077 24.5402 42.8077 23.986C42.8077 23.6176 42.951 23.2713 43.2117 23.0108C43.4724 22.7508 43.8185 22.6075 44.1862 22.6075H55.9042L59.0665 19.4452C59.243 19.2687 59.4777 19.1714 59.7274 19.1714C59.977 19.1714 60.2117 19.2686 60.3883 19.4452C60.5648 19.6217 60.662 19.8564 60.662 20.1061C60.662 20.3558 60.5648 20.5904 60.3883 20.767L58.5105 22.6447C59.1181 22.7885 59.5718 23.3351 59.5718 23.986C59.5718 24.3545 59.4285 24.7007 59.1682 24.9609C59.051 25.0781 58.9164 25.1712 58.7702 25.2386C59.2044 26.2553 59.4246 27.3367 59.4246 28.4594C59.4246 30.3062 58.8135 32.013 57.7828 33.3882L58.6917 36.5528C58.7221 36.6586 58.701 36.7725 58.6348 36.8604C58.5686 36.9483 58.4649 37 58.3548 37H57.0931C56.9849 37 56.8827 36.95 56.8163 36.8645L55.6583 35.3732C54.3703 36.2086 52.8356 36.6944 51.1894 36.6944C49.5432 36.6944 48.0084 36.2085 46.7204 35.3731L45.5624 36.8645C45.496 36.95 45.3939 37 45.2856 37H44.0239C43.9139 37 43.8102 36.9483 43.7439 36.8604C43.6777 36.7725 43.6567 36.6586 43.687 36.5528L44.596 33.388C43.5655 32.0128 42.9543 30.3061 42.9543 28.4593C42.9545 27.3364 43.175 26.2547 43.6094 25.2376ZM49.7643 23.3084H44.1862C44.0053 23.3084 43.835 23.3789 43.7069 23.5067C43.579 23.6346 43.5086 23.8048 43.5086 23.986C43.5086 24.3596 43.8126 24.6636 44.1862 24.6636H49.7643V23.3084ZM54.811 23.3084H50.4652V27.3972C50.4652 27.6678 50.6853 27.8879 50.9559 27.8879C51.2264 27.8879 51.4466 27.6678 51.4466 27.3972V25.9486C51.4466 25.2915 51.9811 24.757 52.6381 24.757C53.2952 24.757 53.8297 25.2915 53.8297 25.9486V26.1823C53.8297 26.4528 54.0498 26.6729 54.3204 26.6729C54.591 26.6729 54.8111 26.4528 54.8111 26.1823V23.3084H54.811ZM59.8926 20.2714C59.9368 20.2272 59.9611 20.1685 59.9611 20.1061C59.9611 20.0437 59.9368 19.985 59.8926 19.9408C59.8015 19.8497 59.6533 19.8497 59.5621 19.9408L56.8954 22.6075H57.5565L59.8926 20.2714ZM58.8708 23.986C58.8708 23.6124 58.5669 23.3084 58.1933 23.3084H55.512V24.6636H58.1933C58.3745 24.6636 58.5447 24.5931 58.6726 24.4653C58.8004 24.3374 58.8708 24.1672 58.8708 23.986ZM57.2648 36.2991H57.8897L57.2405 34.0389C56.9301 34.3752 56.5923 34.6857 56.2303 34.9668L57.2648 36.2991ZM44.4893 36.2991H45.1141L46.1487 34.9667C45.7867 34.6857 45.4489 34.3752 45.1385 34.0388L44.4893 36.2991ZM51.1896 35.9935C55.3439 35.9935 58.7237 32.6137 58.7237 28.4594C58.7237 27.3772 58.5006 26.3372 58.0604 25.3646H55.512V26.1823C55.512 26.8394 54.9774 27.3739 54.3204 27.3739C53.6633 27.3739 53.1288 26.8394 53.1288 26.1823V25.9487C53.1288 25.6781 52.9087 25.458 52.6381 25.458C52.3675 25.458 52.1474 25.6781 52.1474 25.9487V27.3973C52.1474 28.0544 51.6129 28.5889 50.9558 28.5889C50.2988 28.5889 49.7642 28.0544 49.7642 27.3973V25.3646H44.3188C43.8786 26.3373 43.6555 27.3773 43.6555 28.4594C43.6555 32.6137 47.0353 35.9935 51.1896 35.9935Z"
        fill="#FFFCF5" fill-opacity="0.3" />
    <path
        d="M50.9794 18.7679C50.9794 18.4804 50.9284 18.3514 50.8638 18.1881C50.7866 17.9929 50.699 17.7716 50.699 17.3505C50.699 17.1569 50.8559 17 51.0495 17C51.2431 17 51.4 17.1569 51.4 17.3505C51.4 17.638 51.451 17.767 51.5156 17.9303C51.5928 18.1255 51.6804 18.3468 51.6804 18.768C51.6804 19.1891 51.5928 19.4104 51.5156 19.6056C51.451 19.7689 51.4 19.8979 51.4 20.1854C51.4 20.473 51.451 20.6019 51.5156 20.7652C51.5928 20.9604 51.6804 21.1816 51.6804 21.6028C51.6804 21.7963 51.5235 21.9533 51.3299 21.9533C51.1363 21.9533 50.9794 21.7963 50.9794 21.6028C50.9794 21.3152 50.9284 21.1863 50.8638 21.0231C50.7866 20.8279 50.699 20.6066 50.699 20.1854C50.699 19.7643 50.7866 19.543 50.8638 19.3478C50.9284 19.1845 50.9794 19.0556 50.9794 18.7679Z"
        fill="#FFFCF5" fill-opacity="0.3" />
    <path
        d="M53.3404 19.3478C53.405 19.1845 53.456 19.0556 53.456 18.768C53.456 18.5744 53.613 18.4175 53.8065 18.4175C54.0001 18.4175 54.157 18.5744 54.157 18.768C54.157 19.1892 54.0694 19.4104 53.9922 19.6056C53.9276 19.7689 53.8766 19.8979 53.8766 20.1854C53.8766 20.473 53.9276 20.6019 53.9922 20.7652C54.0694 20.9604 54.157 21.1817 54.157 21.6028C54.157 21.7964 54.0001 21.9533 53.8065 21.9533C53.613 21.9533 53.456 21.7964 53.456 21.6028C53.456 21.3153 53.405 21.1864 53.3404 21.0231C53.2632 20.8279 53.1757 20.6067 53.1757 20.1855C53.1757 19.7643 53.2632 19.5431 53.3404 19.3478Z"
        fill="#FFFCF5" fill-opacity="0.3" />
    <path
        d="M48.3871 19.3478C48.4517 19.1845 48.5028 19.0556 48.5028 18.768C48.5028 18.5744 48.6596 18.4175 48.8532 18.4175C49.0468 18.4175 49.2037 18.5744 49.2037 18.768C49.2037 19.1892 49.1162 19.4104 49.039 19.6056C48.9744 19.7689 48.9233 19.8979 48.9233 20.1854C48.9233 20.473 48.9743 20.6019 49.0389 20.7652C49.1162 20.9604 49.2037 21.1817 49.2037 21.6028C49.2037 21.7964 49.0468 21.9533 48.8532 21.9533C48.6596 21.9533 48.5028 21.7964 48.5028 21.6028C48.5028 21.3153 48.4518 21.1864 48.3871 21.0231C48.3099 20.8279 48.2224 20.6067 48.2224 20.1855C48.2224 19.7643 48.3099 19.5431 48.3871 19.3478Z"
        fill="#FFFCF5" fill-opacity="0.3" />
    <path
        d="M134.609 59.2375C134.137 59.0188 133.808 58.5402 133.808 57.986C133.808 57.6176 133.951 57.2713 134.212 57.0108C134.472 56.7507 134.819 56.6075 135.186 56.6075H146.904L150.066 53.4452C150.243 53.2687 150.478 53.1714 150.727 53.1714C150.977 53.1714 151.212 53.2686 151.388 53.4451C151.565 53.6217 151.662 53.8564 151.662 54.106C151.662 54.3557 151.565 54.5904 151.388 54.7669L149.511 56.6447C150.118 56.7885 150.572 57.335 150.572 57.986C150.572 58.3544 150.428 58.7007 150.168 58.9609C150.051 59.078 149.916 59.1712 149.77 59.2386C150.204 60.2553 150.425 61.3367 150.425 62.4593C150.425 64.3062 149.813 66.013 148.783 67.3881L149.692 70.5527C149.722 70.6585 149.701 70.7725 149.635 70.8604C149.569 70.9483 149.465 71 149.355 71H148.093C147.985 71 147.883 70.9499 147.816 70.8645L146.658 69.3732C145.37 70.2086 143.836 70.6944 142.189 70.6944C140.543 70.6944 139.008 70.2085 137.72 69.3731L136.562 70.8645C136.496 70.95 136.394 71 136.286 71H135.024C134.914 71 134.81 70.9483 134.744 70.8604C134.678 70.7725 134.657 70.6585 134.687 70.5527L135.596 67.3879C134.565 66.0128 133.954 64.3061 133.954 62.4593C133.955 61.3364 134.175 60.2547 134.609 59.2375ZM140.764 57.3084H135.186C135.005 57.3084 134.835 57.3789 134.707 57.5067C134.579 57.6346 134.509 57.8048 134.509 57.986C134.509 58.3596 134.813 58.6635 135.186 58.6635H140.764V57.3084ZM145.811 57.3084H141.465V61.3972C141.465 61.6677 141.685 61.8878 141.956 61.8878C142.226 61.8878 142.447 61.6678 142.447 61.3972V59.9486C142.447 59.2915 142.981 58.757 143.638 58.757C144.295 58.757 144.83 59.2915 144.83 59.9486V60.1822C144.83 60.4528 145.05 60.6729 145.32 60.6729C145.591 60.6729 145.811 60.4528 145.811 60.1822V57.3084H145.811ZM150.893 54.2713C150.937 54.2272 150.961 54.1685 150.961 54.1061C150.961 54.0437 150.937 53.9849 150.893 53.9408C150.801 53.8497 150.653 53.8497 150.562 53.9408L147.895 56.6075H148.557L150.893 54.2713ZM149.871 57.986C149.871 57.6124 149.567 57.3084 149.193 57.3084H146.512V58.6635H149.193C149.374 58.6635 149.545 58.5931 149.673 58.4653C149.8 58.3374 149.871 58.1672 149.871 57.986ZM148.265 70.2991H148.89L148.241 68.0389C147.93 68.3752 147.592 68.6857 147.23 68.9667L148.265 70.2991ZM135.489 70.2991H136.114L137.149 68.9667C136.787 68.6856 136.449 68.3752 136.139 68.0388L135.489 70.2991ZM142.19 69.9935C146.344 69.9935 149.724 66.6137 149.724 62.4594C149.724 61.3771 149.501 60.3371 149.06 59.3645H146.512V60.1823C146.512 60.8394 145.977 61.3739 145.32 61.3739C144.663 61.3739 144.129 60.8394 144.129 60.1823V59.9487C144.129 59.6781 143.909 59.458 143.638 59.458C143.368 59.458 143.147 59.6781 143.147 59.9487V61.3973C143.147 62.0543 142.613 62.5889 141.956 62.5889C141.299 62.5889 140.764 62.0543 140.764 61.3973V59.3646H135.319C134.879 60.3373 134.655 61.3773 134.655 62.4594C134.655 66.6137 138.035 69.9935 142.19 69.9935Z"
        fill="#FFFCF5" fill-opacity="0.3" />
    <path
        d="M141.979 52.7679C141.979 52.4804 141.928 52.3514 141.864 52.1881C141.787 51.9929 141.699 51.7716 141.699 51.3505C141.699 51.1569 141.856 51 142.049 51C142.243 51 142.4 51.1569 142.4 51.3505C142.4 51.638 142.451 51.767 142.516 51.9303C142.593 52.1255 142.68 52.3468 142.68 52.768C142.68 53.1891 142.593 53.4104 142.516 53.6056C142.451 53.7689 142.4 53.8979 142.4 54.1854C142.4 54.473 142.451 54.6019 142.516 54.7652C142.593 54.9604 142.68 55.1816 142.68 55.6028C142.68 55.7963 142.523 55.9533 142.33 55.9533C142.136 55.9533 141.979 55.7963 141.979 55.6028C141.979 55.3152 141.928 55.1863 141.864 55.0231C141.787 54.8279 141.699 54.6066 141.699 54.1854C141.699 53.7643 141.787 53.543 141.864 53.3478C141.928 53.1845 141.979 53.0556 141.979 52.7679Z"
        fill="#FFFCF5" fill-opacity="0.3" />
    <path
        d="M144.34 53.3478C144.405 53.1845 144.456 53.0556 144.456 52.7679C144.456 52.5744 144.613 52.4175 144.807 52.4175C145 52.4175 145.157 52.5744 145.157 52.7679C145.157 53.1891 145.069 53.4104 144.992 53.6056C144.928 53.7689 144.877 53.8978 144.877 54.1854C144.877 54.473 144.928 54.6019 144.992 54.7651C145.069 54.9604 145.157 55.1817 145.157 55.6028C145.157 55.7964 145 55.9533 144.807 55.9533C144.613 55.9533 144.456 55.7964 144.456 55.6028C144.456 55.3153 144.405 55.1864 144.34 55.0231C144.263 54.8279 144.176 54.6066 144.176 54.1855C144.176 53.7643 144.263 53.543 144.34 53.3478Z"
        fill="#FFFCF5" fill-opacity="0.3" />
    <path
        d="M139.387 53.3478C139.452 53.1845 139.503 53.0556 139.503 52.7679C139.503 52.5744 139.66 52.4175 139.853 52.4175C140.047 52.4175 140.204 52.5744 140.204 52.7679C140.204 53.1891 140.116 53.4104 140.039 53.6056C139.974 53.7689 139.923 53.8978 139.923 54.1854C139.923 54.473 139.974 54.6019 140.039 54.7651C140.116 54.9604 140.204 55.1817 140.204 55.6028C140.204 55.7964 140.047 55.9533 139.853 55.9533C139.66 55.9533 139.503 55.7964 139.503 55.6028C139.503 55.3153 139.452 55.1864 139.387 55.0231C139.31 54.8279 139.222 54.6066 139.222 54.1855C139.222 53.7643 139.31 53.543 139.387 53.3478Z"
        fill="#FFFCF5" fill-opacity="0.3" />
</svg>
